<?xml version="1.0" encoding="UTF-8"?>
<svg width="130px" height="167px" viewBox="0 0 130 167" version="1.1" xmlns="http://www.w3.org/2000/svg" xmlns:xlink="http://www.w3.org/1999/xlink">
    <!-- Generator: Sketch 49.1 (51147) - http://www.bohemiancoding.com/sketch -->
    <title>logo copy</title>
    <desc>Created with Sketch.</desc>
    <defs>
        <linearGradient x1="50%" y1="0%" x2="50%" y2="73.3585599%" id="linearGradient-1">
            <stop stop-color="#FF9610" offset="0%"></stop>
            <stop stop-color="#FF1053" offset="100%"></stop>
        </linearGradient>
    </defs>
    <g id="Page-1" stroke="none" stroke-width="1" fill="none" fill-rule="evenodd">
        <g id="logo-copy" fill="url(#linearGradient-1)" fill-rule="nonzero">
            <path d="M54.7713059,0.00566677978 C63.6041221,23.7381405 59.0097014,36.6640652 49.1201119,46.9322701 C38.3489362,58.2658297 21.5705413,66.7659993 9.73694115,83.4149983 C-5.97902927,105.54944 -8.62943925,154.249746 48.0576875,167 C24.2153001,154.425416 19.0953184,117.948354 44.8760652,95.0998982 C38.1624468,117.23434 50.5272592,131.401289 65.8928556,126.267187 C80.9024268,121.133084 90.7920162,131.933967 90.4416422,144.332881 C90.2664552,152.833051 86.909646,160.092195 78.257668,164.16661 C115.165616,157.615813 130,126.975534 130,103.600068 C130,72.7841194 102.625616,68.5340346 116.403227,42.6821853 C99.9808576,44.0988802 94.3296637,54.8997625 95.9176492,72.6084493 C96.9800736,84.2990159 84.7904483,92.2665083 75.7824451,86.9510689 C68.5432656,82.5253139 68.7184526,74.0251442 75.0760458,67.650017 C88.6728185,54.191415 93.9736384,23.1997964 54.7656547,0 L54.7713059,0.00566677978 Z" id="Shape"></path>
        </g>
    </g>
</svg>